# xmcd
# 
# Track frame offsets:
#     182
#     18570
#     41185
#     66705
#     87517
#     110447
#     136980
#     154400
#     173500
#     194110
#     211695
#     231700
#     251712
#     269830
#     290507
#     308615
# 
# Disc length: 4430
# 
# Revision: 3
# Processed by: cddbd v1.5.2PL0 Copyright (c) Steve Scherf et al.
# Submitted via: fre:ac v1.0.17
# 
DISCID=01114c10
DTITLE=Various Artist - Carnaval 1994 - Grupo Especial
DYEAR=1994
DGENRE=Samba Enredo
TTITLE0=Salgueiro - Rio De Lá  Prá  Cá
TTITLE1=Império Serrano - Uma Festa Brasileira
TTITLE2=Tradição - Passarinho, Passarola, Quero Ver Voar !
TTITLE3=Estação Primeira de Mangueira - Atrás Da Verde-E-Rosa Só  Não Vai Quem Já  Morreu
TTITLE4=Beija-Flor - Margaret Mee, A Dama Das Bromélias
TTITLE5=Viradouro - Tereza De Benguela - Uma Rainha Negra No Pantanal
TTITLE6=Unidos da Ponte - Marron Da Cor Do Samba
TTITLE7=União da Ilha - Abrakadabra, O Despertar Dos Mágicos
TTITLE8=Imperatriz Leopoldinense - Catarina De Médicis Na Corte Dos Tupinambás e Tabajeres
TTITLE9=Estácio de Sá - S.A.A.R.A ... A Est cio Chegou No I  I  I  De Alala
TTITLE10=Grande Rio - Os Santos Que A África Não Viu
TTITLE11=Portela - Quando O Samba Era Samba
TTITLE12=Mocidade Independente de Padre Miguel - Avenida Brasil, Tudo Passa, Quem Não Viu ?
TTITLE13=Unidos da Tijuca - Só ... Rio e Verão
TTITLE14=Caprichosos de Pilares - Estou Amando Loucamente Uma Coroa de Quase 90 Anos
TTITLE15=Vila Isabel - Muito Prazer ! Isabel de Bragan a e Drumond Rosa Da Silva Mas Pode Me Chamar de Vila
EXTD=
EXTT0=Acad micos Do Salgueiro
EXTT1=Imp rio Serrano
EXTT2=Tradi  o
EXTT3=Esta  o Primeira De Mangueira
EXTT4=Beija-Flor De Nil polis
EXTT5=Unidos Do Viradouro
EXTT6=Unidos Da Ponte
EXTT7=Uni o Da Ilha Do Governador
EXTT8=Imperatriz Leopoldinense
EXTT9=Est cio De S
EXTT10=Acad micos Do Grande Rio
EXTT11=Portela
EXTT12=Mocidade Independente De Padre \nMiguel
EXTT13=Unidos Da Tijuca
EXTT14=Caprichosos de Pilares
EXTT15=Unidos De Vila Isabel
PLAYORDER=
